<svg width="736" height="344" viewBox="0 0 736 344" fill="none" xmlns="http://www.w3.org/2000/svg">
<path opacity="0.3" d="M70.3408 144.434C55.3925 190.562 52.8406 350.934 245.395 274.236C357.315 222.537 552.341 358.934 572.341 220.934C586.841 51.4342 459.429 202.647 226.361 70.8876C109.864 5.02901 83.1 105.061 70.3408 144.434Z" fill="#2493DF"/>
<mask id="mask0" mask-type="alpha" maskUnits="userSpaceOnUse" x="70" y="62" width="519" height="229">
<rect x="70.8411" y="62.4341" width="518" height="228" fill="#C4C4C4"/>
</mask>
<g mask="url(#mask0)">
<path d="M375.918 290C338.594 290 308.253 269.202 308.253 243.656V186.86C308.253 183.626 312.087 181 316.809 181C321.532 181 325.366 183.626 325.366 186.86V243.639C325.366 262.75 348.065 278.279 375.943 278.279C380.666 278.279 384.499 280.905 384.499 284.14C384.474 287.374 380.64 290 375.918 290Z" fill="#2493DF"/>
<path d="M316.783 181H225.531L231.091 226.857L228.425 261.341L273.95 281.201L284.665 290H375.917L351.111 279.218L332.627 264.872L325.213 261.776L319.043 233.9L318.637 200.39L316.783 181Z" fill="#2493DF"/>
<path d="M284.471 289C232.025 290 217 269.202 217 243.656V186.86C217 183.626 220.821 181 225.529 181C230.236 181 234.058 183.626 234.058 186.86V243.639C234.058 262.75 256.683 278.279 284.471 278.279C289.178 278.279 293 280.905 293 284.14C292.975 287.374 289.178 289 284.471 289Z" fill="#C8D2DB"/>
<path d="M366.669 253.758L423.314 265.686L426.361 277.03L352.196 278.096L346.255 247.312L366.669 253.758Z" fill="#F9A498"/>
<path d="M414.706 265.026C414.706 265.026 426.284 257.997 437.761 260.94C445.327 262.869 452.817 270.153 452.233 277.919L406.15 277.335L414.706 265.026Z" fill="#F9A498"/>
<path d="M369.919 212.848L376.444 261.321C376.444 261.321 348.134 276.218 348.743 274.416C349.327 272.614 342.396 212.848 342.396 212.848H369.919V212.848Z" fill="#F9A498"/>
<path d="M344.629 172.751C344.629 172.751 365.399 176.024 370.147 193.739C376.316 216.833 378.678 220.157 378.678 220.157L347.27 224.725L344.629 172.751Z" fill="#2D3846"/>
<path d="M304.691 166.863L344.63 172.751C348.667 173.36 351.689 176.811 351.739 180.897L352.679 275.584L263.585 275.837L257.542 193.231L260.842 182.039C262.391 176.811 266.809 172.928 272.192 172.066L304.691 166.863Z" fill="#2D3846"/>
<path d="M278.54 219.853L261.858 262.945L236.113 240.562L246.116 209.549L278.54 219.853Z" fill="#FFB0A0"/>
<path d="M294.789 170.213C294.789 170.213 263.787 169.934 256.069 179.095C246.37 190.617 234.843 220.081 234.843 220.081L285.267 231.197L294.789 170.213Z" fill="#2D3846"/>
<path d="M264.727 255.763L322.921 268.731L320.535 281.624L251.752 282.08C251.752 282.08 221.005 275.888 236.112 240.587L264.727 255.763Z" fill="#FFB0A0"/>
<path d="M322.922 268.706C322.922 268.706 336.607 263.351 347.931 265.483C355.624 266.93 360.779 274.239 360.195 282.055L314.492 281.649L322.922 268.706Z" fill="#FFB0A0"/>
<path d="M331.352 96.3621C331.352 96.3621 347.195 111.234 331.58 116.614L331.352 96.3621Z" fill="#2D3846"/>
<path d="M321.932 122.857C321.78 128.897 326.375 133.947 332.241 134.125C338.08 134.302 342.955 129.557 343.133 123.517C343.285 117.477 338.69 112.426 332.825 112.249C326.959 112.071 322.084 116.817 321.932 122.857Z" fill="#2493DF"/>
<path d="M319.037 146.18L319.875 167.269C320.18 174.679 315.914 178.791 308.856 178.994C302.813 179.171 296.084 176.507 296.084 169.959L296.313 136.714L319.037 146.18Z" fill="#FFB0A0"/>
<path d="M319.647 160.214C319.647 160.214 302.508 162.346 296.415 143.21C294.485 137.196 319.012 144.022 319.012 144.022L319.647 160.214Z" fill="#F4ABA2"/>
<path d="M312.944 152.575C325.004 152.118 334.551 141.942 334.5 131.765L334.272 110.498C334.221 97.7578 324.369 87.3274 312.03 86.9467C299.385 86.5406 286.64 96.7173 286.284 109.762L286.665 126.334C286.995 141.256 298.497 152.118 312.944 152.575Z" fill="#FFB0A0"/>
<path d="M321.56 138.129C321.56 138.129 318.114 138.951 315.336 135.481" stroke="#2D3846" stroke-width="0.7051" stroke-miterlimit="10" stroke-linecap="round" stroke-linejoin="round"/>
<path d="M321.854 126.004L322.413 130.09L319.442 130.318" stroke="#2D3846" stroke-width="0.5266" stroke-miterlimit="10" stroke-linecap="round" stroke-linejoin="round"/>
<path d="M308.474 113.569C308.474 113.569 313.4 112.96 313.527 115.015C313.527 115.015 313.578 116.411 309.287 116.868C304.996 117.325 303.853 117.046 303.422 115.726C302.965 114.457 306.164 113.67 308.474 113.569Z" fill="#2D3846"/>
<path d="M328.381 112.883C328.381 112.883 324.293 112.604 324.039 114.584C324.039 114.584 323.887 115.903 327.467 116.056C331.047 116.208 332.19 115.7 332.494 114.609C332.824 113.391 330.311 112.832 328.381 112.883Z" fill="#2D3846"/>
<path d="M325.816 121.639C325.816 122.832 326.756 123.771 327.898 123.771C329.041 123.771 329.955 122.806 329.955 121.613C329.955 120.421 329.015 119.482 327.873 119.482C326.73 119.482 325.816 120.446 325.816 121.639Z" fill="#2D3846"/>
<path d="M307.636 121.74C307.636 122.933 308.576 123.872 309.718 123.872C310.861 123.872 311.775 122.908 311.775 121.715C311.775 120.522 310.835 119.583 309.693 119.583C308.55 119.609 307.636 120.573 307.636 121.74Z" fill="#2D3846"/>
<path d="M346.941 89.2053L337.801 87.911C340.467 86.2106 343.158 84.5357 343.158 84.5357C343.158 84.5357 336.912 82.3785 328.61 82.4039C323.202 79.4854 316.27 77.4805 309.009 77.4044C298.395 77.2775 289.331 83.0384 286.056 89.3576C286.056 89.3576 277.245 88.8246 276.027 98.7983C274.452 111.716 290.017 133.059 290.017 133.059L291.769 116.182C301.417 115.497 301.848 106.995 301.112 101.438C305.454 101.818 320.409 102.783 332.114 100.194C333.383 100.042 335.11 99.7119 336.582 98.9506C342.092 97.0218 346.231 93.9764 346.941 89.2053Z" fill="#2D3846"/>
<path d="M275.57 126.334C275.443 131.156 279.124 135.191 283.796 135.343C288.468 135.495 292.378 131.689 292.505 126.867C292.632 122.045 288.95 118.01 284.279 117.857C279.607 117.73 275.722 121.512 275.57 126.334Z" fill="#FFBA99"/>
<path d="M286.894 128.795C286.894 128.795 287.071 122.451 281.156 123.263" stroke="#2D3846" stroke-width="0.5575" stroke-miterlimit="10" stroke-linecap="round" stroke-linejoin="round"/>
<path d="M316.955 77.0744L317.209 78.2926C317.209 78.2926 301.899 79.8914 294.916 89.2053C287.147 99.585 287.02 113.568 287.02 113.568L283.719 113.848L283.948 91.667L290.575 84.7641L301.162 78.4449L308.576 76.0847L316.955 77.0744Z" fill="#2493DF"/>
<path d="M296.237 121.613C297.811 128.897 293.114 136.104 283.872 138.109C277.321 139.531 274.148 134.023 272.573 126.74C270.999 119.456 275.011 112.401 281.562 110.98C288.062 109.584 294.663 114.33 296.237 121.613Z" fill="#2493DF"/>
<path d="M292.835 122.35C294.409 129.634 290.397 136.689 283.847 138.11C277.296 139.531 270.72 134.76 269.146 127.477C267.572 120.193 271.583 113.138 278.134 111.717C284.685 110.321 291.261 115.067 292.835 122.35Z" fill="#2493DF"/>
<path d="M278.945 113.289C278.945 113.289 277.676 105.194 279.606 96.3366C282.043 85.1448 291.006 77.1506 302.305 75.0949C303.168 74.9427 304.082 74.7904 305.021 74.6635C308.297 74.2321 311.851 74.3082 314.822 75.7802C315.584 76.1608 316.294 76.5923 316.929 77.0745C316.929 77.0745 302.051 77.6835 294.891 85.6523C286.816 94.6109 284.709 106.64 285.217 114.66L278.945 113.289Z" fill="#2493DF"/>
<path d="M287.908 169.553L304.691 166.863L327.009 170.162C327.009 170.162 328.38 183.181 309.515 183.714C290.65 184.247 287.908 169.553 287.908 169.553Z" fill="#FFB0A0"/>
<path d="M318.544 233.354L326.465 239.039L382.679 191.632L519.533 116.106L512.144 110.751L418.251 139.581L318.544 233.354Z" fill="#6B7F99"/>
<path d="M337.968 115.116L315.675 225.766C314.71 230.512 318.341 234.927 323.165 234.927H483.555C487.161 234.927 490.284 232.415 491.046 228.887L514.734 118.238C515.75 113.467 512.119 109 507.244 109H345.458C341.827 108.975 338.679 111.563 337.968 115.116Z" fill="#6B7F99"/>
<path d="M345.204 120.344L322.911 230.994C321.947 235.74 325.577 240.155 330.402 240.155H490.792C494.397 240.155 497.52 237.643 498.282 234.115L521.971 123.466C522.987 118.695 519.356 114.228 514.481 114.228H352.694C349.038 114.203 345.915 116.766 345.204 120.344Z" fill="#C8D2DB"/>
<path d="M403.576 210.894L400.58 240.155H413.605L403.576 210.894Z" fill="#6B7F99"/>
<path d="M403.576 210.285L416.856 275.786H465.275L442.576 210.285H403.576Z" fill="#C8D2DB"/>
<path d="M428.991 170.619C434.923 170.619 439.731 165.812 439.731 159.884C439.731 153.955 434.923 149.149 428.991 149.149C423.06 149.149 418.251 153.955 418.251 159.884C418.251 165.812 423.06 170.619 428.991 170.619Z" fill="white"/>
<path d="M493.839 270H380.161C378.416 270 377 271.344 377 273C377 274.656 378.416 276 380.161 276H493.839C495.584 276 497 274.656 497 273C497 271.344 495.584 270 493.839 270Z" fill="#C8D2DB"/>
<path d="M360.817 270H300.183C298.426 270 297 271.344 297 273C297 274.656 298.426 276 300.183 276H360.817C362.574 276 364 274.656 364 273C364 271.344 362.574 270 360.817 270Z" fill="#C8D2DB"/>
<path d="M187 106H246C246.552 106 247 106.448 247 107V144C247 144.552 246.552 145 246 145H187C186.448 145 186 144.552 186 144V107C186 106.448 186.448 106 187 106Z" fill="white" stroke="#6B7F99" stroke-width="2"/>
<path d="M228.468 126.752C228.32 127.209 227.572 127.441 227.365 127.885C227.166 128.323 227.475 129.038 227.217 129.456C226.959 129.875 226.173 129.92 225.876 130.293C225.573 130.679 225.702 131.452 225.36 131.787C225.096 132.051 224.58 132.025 224.18 132.135C224.161 132.141 224.141 132.147 224.122 132.154C224.083 132.167 224.045 132.18 224.006 132.199C223.954 132.225 223.903 132.25 223.858 132.283C223.806 132.321 223.761 132.373 223.722 132.424C223.452 132.778 223.361 133.39 223 133.609C222.581 133.854 221.865 133.532 221.42 133.725C220.976 133.918 220.731 134.665 220.266 134.806C219.802 134.948 219.183 134.459 218.706 134.542C218.371 134.6 218.074 134.942 217.758 135.148C217.745 135.154 217.732 135.167 217.719 135.173C217.681 135.199 217.636 135.225 217.597 135.244C217.513 135.283 217.423 135.315 217.333 135.315C217.307 135.315 217.281 135.315 217.255 135.315C216.946 135.289 216.636 135.025 216.32 134.852C216.178 134.768 216.03 134.703 215.888 134.691L215.824 134.665L215.817 134.691C215.353 134.703 214.818 135.199 214.36 135.109C213.883 135.019 213.567 134.304 213.103 134.15C212.645 134.002 211.968 134.401 211.523 134.188C211.085 133.989 210.949 133.216 210.53 132.959C210.272 132.798 209.885 132.823 209.537 132.791C209.324 132.772 209.124 132.733 208.983 132.624C208.602 132.321 208.647 131.536 208.312 131.195C207.97 130.847 207.184 130.879 206.893 130.499C206.597 130.113 206.835 129.366 206.584 128.948C206.333 128.529 205.565 128.375 205.372 127.93C205.146 127.48 205.552 126.816 205.41 126.346C205.269 125.883 204.559 125.548 204.476 125.072C204.392 124.595 204.953 124.042 204.927 123.559C204.901 123.076 204.289 122.586 204.321 122.097C204.353 121.614 205.03 121.215 205.12 120.732C205.211 120.256 204.74 119.631 204.888 119.168C205.037 118.711 205.784 118.479 205.991 118.035C206.191 117.597 205.881 116.882 206.139 116.464C206.397 116.045 207.184 116 207.48 115.627C207.79 115.24 207.654 114.468 207.996 114.133C208.344 113.792 209.118 113.933 209.498 113.644C209.885 113.347 209.943 112.562 210.362 112.317C210.782 112.066 211.497 112.395 211.942 112.201C212.387 112.008 212.632 111.261 213.096 111.12C213.561 110.978 214.18 111.467 214.657 111.384C215.134 111.3 215.553 110.637 216.037 110.611C216.52 110.585 217.004 111.204 217.487 111.236C217.971 111.268 218.532 110.721 219.015 110.817C219.493 110.907 219.809 111.622 220.273 111.777C220.731 111.925 221.408 111.525 221.852 111.738C222.291 111.937 222.426 112.71 222.845 112.968C223.265 113.225 224.019 113 224.393 113.302C224.78 113.605 224.728 114.39 225.064 114.732C225.405 115.079 226.192 115.047 226.482 115.427C226.779 115.813 226.54 116.56 226.792 116.979C227.037 117.397 227.81 117.552 228.004 117.996C228.197 118.44 227.791 119.11 227.933 119.573C228.075 120.037 228.784 120.372 228.868 120.848C228.952 121.325 228.391 121.878 228.423 122.361C228.449 122.844 229.061 123.333 229.022 123.823C228.99 124.306 228.32 124.705 228.223 125.188C228.139 125.658 228.616 126.282 228.468 126.752Z" fill="#FDB850"/>
<path d="M211.91 116.434C209.911 117.733 208.178 120.353 209.085 122.581C209.782 125.18 212.882 126.505 215.679 126.699C213.078 124.925 210.858 122.421 211.296 118.934C211.424 118.091 211.647 117.268 211.91 116.434Z" fill="white"/>
<path d="M208.716 123.355C208.455 125.85 210.056 128.521 212.105 129.229C214.838 130.339 217.753 128.659 219.486 126.039C216.504 127.467 212.959 127.788 210.46 125.403C209.804 124.77 209.218 124.073 208.716 123.355Z" fill="white"/>
<path d="M212.767 130.04C214.864 131.59 217.969 131.611 219.964 130.133C221.324 129.095 222.032 127.108 221.804 125.103C221.711 124.095 221.292 123.354 220.898 122.381C220.636 125.865 218.7 128.72 215.44 129.773C214.55 129.922 213.649 130.029 212.767 130.04Z" fill="white"/>
<path d="M220.979 129.951C223.289 128.658 225.191 125.678 224.495 123.079C224.034 121.361 221.427 118.735 217.901 118.961C220.791 120.658 223.206 124.053 222.039 127.466C221.757 128.395 221.4 129.209 220.979 129.951Z" fill="white"/>
<path d="M224.81 122.277C224.52 119.704 223.088 116.674 220.512 116.151C218.872 115.647 214.965 117.593 214.314 120.283C216.861 118.387 220.605 117.654 223.171 120.29C223.734 120.903 224.308 121.558 224.81 122.277Z" fill="white"/>
<path d="M219.792 115.444C217.623 114.453 214.537 114.337 212.947 116.335C211.056 118.369 211.332 121.709 213.474 123.92C212.879 120.711 214.496 117.492 217.396 116.086C218.117 115.803 218.944 115.582 219.792 115.444Z" fill="white"/>
<path d="M218.698 139.205C219.233 139.039 220.56 138.493 220.422 137.141C220.41 137.062 220.326 137.002 220.233 137.027C219.786 137.118 218.615 137.505 218.495 139.077C218.485 139.169 218.597 139.237 218.698 139.205Z" fill="#6B7F99"/>
<path d="M221.231 140.527C220.677 140.636 219.228 140.785 218.578 139.557C218.538 139.485 218.584 139.394 218.671 139.368C219.104 139.241 220.327 139.027 221.324 140.317C221.393 140.398 221.339 140.51 221.231 140.527Z" fill="#6B7F99"/>
<path d="M221.005 138.438C221.493 138.191 222.684 137.434 222.251 136.135C222.226 136.056 222.127 136.017 222.04 136.049C221.62 136.213 220.549 136.782 220.773 138.337C220.784 138.43 220.904 138.484 221.005 138.438Z" fill="#6B7F99"/>
<path d="M223.798 139.305C223.276 139.501 221.876 139.887 220.971 138.792C220.917 138.726 220.941 138.634 221.021 138.594C221.421 138.395 222.586 137.986 223.848 139.079C223.924 139.152 223.899 139.273 223.798 139.305Z" fill="#6B7F99"/>
<path d="M223.242 137.411C223.703 137.127 224.812 136.282 224.241 135.028C224.208 134.956 224.102 134.924 224.022 134.964C223.622 135.156 222.613 135.813 223.002 137.338C223.028 137.425 223.155 137.465 223.242 137.411Z" fill="#6B7F99"/>
<path d="M226.128 138.053C225.627 138.292 224.273 138.78 223.251 137.774C223.189 137.715 223.207 137.616 223.28 137.568C223.659 137.339 224.777 136.844 226.158 137.826C226.241 137.886 226.223 138.007 226.128 138.053Z" fill="#6B7F99"/>
<path d="M225.425 136.097C225.858 135.777 226.877 134.85 226.176 133.649C226.136 133.576 226.029 133.558 225.949 133.598C225.57 133.82 224.63 134.55 225.17 136.031C225.21 136.125 225.338 136.158 225.425 136.097Z" fill="#6B7F99"/>
<path d="M228.369 136.513C227.895 136.781 226.588 137.377 225.463 136.454C225.393 136.401 225.404 136.302 225.47 136.247C225.822 135.996 226.886 135.413 228.37 136.285C228.461 136.345 228.464 136.459 228.369 136.513Z" fill="#6B7F99"/>
<path d="M227.467 134.543C227.844 134.171 228.696 133.131 227.784 132.037C227.729 131.97 227.622 131.967 227.549 132.021C227.21 132.287 226.402 133.129 227.203 134.519C227.257 134.599 227.393 134.611 227.467 134.543Z" fill="#6B7F99"/>
<path d="M230.468 134.568C230.042 134.895 228.85 135.652 227.569 134.887C227.492 134.842 227.481 134.749 227.548 134.687C227.851 134.391 228.813 133.676 230.433 134.346C230.531 134.385 230.549 134.507 230.468 134.568Z" fill="#6B7F99"/>
<path d="M229.194 132.778C229.495 132.36 230.135 131.213 229.025 130.269C228.963 130.217 228.848 130.22 228.789 130.282C228.506 130.593 227.866 131.533 228.93 132.783C228.998 132.87 229.134 132.861 229.194 132.778Z" fill="#6B7F99"/>
<path d="M232.167 132.376C231.811 132.763 230.778 133.675 229.361 133.112C229.277 133.081 229.252 132.987 229.297 132.917C229.544 132.584 230.353 131.742 232.089 132.159C232.196 132.185 232.234 132.3 232.167 132.376Z" fill="#6B7F99"/>
<path d="M230.577 131.266C230.807 130.824 231.25 129.621 229.992 128.806C229.915 128.761 229.807 128.779 229.762 128.848C229.535 129.19 229.057 130.186 230.318 131.306C230.395 131.373 230.531 131.35 230.577 131.266Z" fill="#6B7F99"/>
<path d="M233.468 130.553C233.181 130.971 232.302 131.981 230.802 131.572C230.71 131.547 230.67 131.46 230.708 131.39C230.899 131.033 231.568 130.123 233.36 130.357C233.467 130.36 233.528 130.469 233.468 130.553Z" fill="#6B7F99"/>
<path d="M231.72 129.257C231.907 128.8 232.251 127.579 230.926 126.848C230.849 126.802 230.741 126.827 230.695 126.904C230.497 127.254 230.111 128.281 231.467 129.32C231.551 129.38 231.688 129.349 231.72 129.257Z" fill="#6B7F99"/>
<path d="M234.545 128.365C234.294 128.799 233.506 129.862 231.973 129.552C231.881 129.534 231.827 129.447 231.858 129.377C232.014 129.011 232.598 128.055 234.416 128.176C234.523 128.179 234.591 128.282 234.545 128.365Z" fill="#6B7F99"/>
<path d="M232.649 127.237C232.815 126.779 233.109 125.549 231.754 124.838C231.677 124.8 231.569 124.824 231.531 124.894C231.347 125.251 231.003 126.281 232.404 127.292C232.48 127.359 232.61 127.328 232.649 127.237Z" fill="#6B7F99"/>
<path d="M235.433 126.292C235.196 126.733 234.458 127.805 232.91 127.523C232.818 127.505 232.763 127.425 232.788 127.347C232.929 126.974 233.478 126.017 235.29 126.101C235.404 126.105 235.479 126.208 235.433 126.292Z" fill="#6B7F99"/>
<path d="M233.294 125.141C233.446 124.676 233.69 123.444 232.314 122.732C232.23 122.687 232.129 122.719 232.091 122.789C231.921 123.146 231.613 124.177 233.049 125.197C233.132 125.264 233.262 125.233 233.294 125.141Z" fill="#6B7F99"/>
<path d="M236.036 124.204C235.82 124.646 235.118 125.719 233.57 125.43C233.478 125.412 233.416 125.332 233.447 125.254C233.575 124.881 234.08 123.922 235.893 124.006C236 124.01 236.075 124.113 236.036 124.204Z" fill="#6B7F99"/>
<path d="M234.113 121.163C233.758 121.521 232.964 122.549 233.918 123.666C233.973 123.732 234.087 123.743 234.153 123.688C234.476 123.429 235.241 122.607 234.369 121.193C234.323 121.106 234.187 121.087 234.113 121.163Z" fill="#6B7F99"/>
<path d="M214.646 139.205C214.112 139.038 212.784 138.493 212.923 137.14C212.934 137.062 213.018 137.002 213.112 137.027C213.558 137.118 214.729 137.505 214.849 139.077C214.859 139.169 214.747 139.237 214.646 139.205Z" fill="#6B7F99"/>
<path d="M212.113 140.527C212.667 140.636 214.116 140.785 214.766 139.557C214.806 139.484 214.76 139.393 214.673 139.368C214.24 139.24 213.018 139.027 212.02 140.316C211.951 140.397 212.005 140.51 212.113 140.527Z" fill="#6B7F99"/>
<path d="M212.339 138.437C211.851 138.191 210.66 137.434 211.093 136.135C211.119 136.056 211.217 136.017 211.304 136.049C211.724 136.213 212.795 136.781 212.571 138.337C212.56 138.43 212.441 138.484 212.339 138.437Z" fill="#6B7F99"/>
<path d="M209.547 139.305C210.068 139.5 211.468 139.886 212.373 138.792C212.428 138.726 212.403 138.634 212.323 138.594C211.923 138.394 210.758 137.986 209.496 139.078C209.42 139.152 209.445 139.273 209.547 139.305Z" fill="#6B7F99"/>
<path d="M210.102 137.411C209.642 137.127 208.533 136.282 209.103 135.028C209.136 134.956 209.242 134.923 209.322 134.963C209.722 135.156 210.732 135.813 210.342 137.338C210.317 137.424 210.189 137.465 210.102 137.411Z" fill="#6B7F99"/>
<path d="M207.216 138.053C207.717 138.292 209.071 138.78 210.093 137.774C210.155 137.715 210.138 137.615 210.064 137.568C209.685 137.339 208.567 136.843 207.186 137.826C207.103 137.886 207.121 138.006 207.216 138.053Z" fill="#6B7F99"/>
<path d="M207.919 136.097C207.486 135.777 206.467 134.85 207.168 133.649C207.208 133.576 207.315 133.558 207.395 133.598C207.774 133.82 208.715 134.55 208.174 136.031C208.134 136.125 208.007 136.158 207.919 136.097Z" fill="#6B7F99"/>
<path d="M204.975 136.513C205.449 136.781 206.756 137.377 207.882 136.454C207.951 136.401 207.94 136.302 207.874 136.247C207.522 135.995 206.458 135.412 204.974 136.284C204.883 136.345 204.88 136.459 204.975 136.513Z" fill="#6B7F99"/>
<path d="M205.877 134.542C205.5 134.171 204.649 133.131 205.56 132.036C205.615 131.97 205.722 131.966 205.796 132.021C206.134 132.287 206.942 133.129 206.141 134.519C206.087 134.599 205.951 134.611 205.877 134.542Z" fill="#6B7F99"/>
<path d="M202.877 134.568C203.303 134.895 204.495 135.652 205.775 134.887C205.852 134.842 205.863 134.749 205.797 134.687C205.493 134.391 204.532 133.676 202.912 134.346C202.813 134.385 202.796 134.507 202.877 134.568Z" fill="#6B7F99"/>
<path d="M204.15 132.777C203.85 132.36 203.209 131.213 204.319 130.269C204.381 130.216 204.496 130.22 204.555 130.282C204.838 130.593 205.478 131.533 204.415 132.782C204.346 132.87 204.21 132.861 204.15 132.777Z" fill="#6B7F99"/>
<path d="M201.177 132.376C201.534 132.763 202.566 133.675 203.983 133.112C204.067 133.08 204.093 132.987 204.047 132.917C203.8 132.583 202.991 131.742 201.255 132.159C201.149 132.184 201.11 132.3 201.177 132.376Z" fill="#6B7F99"/>
<path d="M202.767 131.265C202.537 130.824 202.095 129.62 203.352 128.806C203.429 128.761 203.537 128.778 203.582 128.848C203.809 129.19 204.287 130.185 203.026 131.306C202.95 131.373 202.813 131.349 202.767 131.265Z" fill="#6B7F99"/>
<path d="M199.876 130.553C200.162 130.97 201.041 131.981 202.542 131.572C202.634 131.547 202.674 131.46 202.635 131.39C202.444 131.033 201.776 130.122 199.983 130.356C199.876 130.36 199.816 130.469 199.876 130.553Z" fill="#6B7F99"/>
<path d="M201.624 129.257C201.437 128.8 201.094 127.579 202.419 126.848C202.496 126.802 202.604 126.827 202.649 126.904C202.847 127.253 203.234 128.281 201.877 129.32C201.793 129.38 201.656 129.349 201.624 129.257Z" fill="#6B7F99"/>
<path d="M198.799 128.365C199.05 128.799 199.838 129.862 201.37 129.552C201.463 129.534 201.517 129.447 201.486 129.376C201.33 129.011 200.746 128.055 198.928 128.175C198.821 128.179 198.753 128.281 198.799 128.365Z" fill="#6B7F99"/>
<path d="M200.695 127.236C200.529 126.779 200.236 125.548 201.59 124.838C201.667 124.799 201.775 124.824 201.813 124.894C201.998 125.251 202.341 126.28 200.94 127.292C200.864 127.359 200.734 127.328 200.695 127.236Z" fill="#6B7F99"/>
<path d="M197.911 126.292C198.148 126.733 198.886 127.805 200.434 127.522C200.526 127.505 200.581 127.425 200.557 127.347C200.415 126.974 199.867 126.016 198.054 126.101C197.94 126.105 197.865 126.208 197.911 126.292Z" fill="#6B7F99"/>
<path d="M200.05 125.141C199.898 124.676 199.655 123.444 201.03 122.732C201.114 122.686 201.215 122.719 201.254 122.789C201.424 123.146 201.731 124.177 200.295 125.197C200.212 125.264 200.082 125.233 200.05 125.141Z" fill="#6B7F99"/>
<path d="M197.309 124.204C197.525 124.645 198.227 125.719 199.775 125.429C199.867 125.412 199.929 125.331 199.898 125.254C199.77 124.881 199.265 123.921 197.452 124.006C197.345 124.01 197.27 124.112 197.309 124.204Z" fill="#6B7F99"/>
<path d="M199.231 121.163C199.587 121.521 200.38 122.548 199.426 123.666C199.372 123.732 199.258 123.743 199.191 123.688C198.868 123.429 198.103 122.607 198.975 121.193C199.022 121.106 199.157 121.087 199.231 121.163Z" fill="#6B7F99"/>
<path d="M256 276H160V290H256V276Z" fill="#6B7F99"/>
<path d="M566 276H256V290H566V276Z" fill="#EAF0F3"/>
<rect x="106" y="201" width="66" height="16" rx="1" transform="rotate(-90 106 201)" fill="#FDB850"/>
<rect x="110" y="197" width="42" height="8" rx="1" transform="rotate(-90 110 197)" fill="#F6E9C8"/>
<rect x="110" y="151" width="12" height="8" rx="1" transform="rotate(-90 110 151)" fill="#F6E9C8"/>
<rect x="124.812" y="202.408" width="66" height="11" rx="1" transform="rotate(-92.4415 124.812 202.408)" fill="#2493DF"/>
<rect x="124.382" y="145.375" width="4" height="7" rx="1" transform="rotate(-92.4415 124.382 145.375)" fill="#D3E9F9"/>
<rect x="125.021" y="160.361" width="4" height="7" rx="1" transform="rotate(-92.4415 125.021 160.361)" fill="#D3E9F9"/>
<rect x="126.597" y="197.328" width="32" height="7" rx="1" transform="rotate(-92.4415 126.597 197.328)" fill="#D3E9F9"/>
<circle cx="128.113" cy="150.721" r="2.5" transform="rotate(-92.4415 128.113 150.721)" fill="#D3E9F9"/>
<rect x="94" y="201" width="66" height="11" rx="1" transform="rotate(-90 94 201)" fill="#40BF9C"/>
<rect x="96" y="197" width="47" height="7" rx="1" transform="rotate(-90 96 197)" fill="#BDE8E0"/>
<circle cx="99.5" cy="142.5" r="3.5" transform="rotate(-90 99.5 142.5)" fill="#BDE8E0"/>
<path d="M210 201H86V208H210V201Z" fill="#6B7F99"/>
<path d="M149 167C149 165.895 149.895 165 151 165H197C198.105 165 199 165.895 199 167V201H149V167Z" fill="white"/>
<rect x="164.841" y="162.434" width="3" height="5" rx="0.8" fill="#FDB850"/>
<rect x="155" y="163" width="3" height="5" rx="0.8" fill="#FDB850"/>
<rect x="160" y="163" width="3" height="5" rx="0.8" fill="#FDB850"/>
<rect x="170" y="163" width="3" height="5" rx="0.8" fill="#FDB850"/>
<rect x="175" y="163" width="3" height="5" rx="0.8" fill="#FDB850"/>
<rect x="180" y="163" width="3" height="5" rx="0.8" fill="#FDB850"/>
<rect x="185" y="163" width="3" height="5" rx="0.8" fill="#FDB850"/>
<rect x="190" y="163" width="3" height="5" rx="0.8" fill="#FDB850"/>
<rect x="154" y="172" width="5" height="5" rx="0.8" fill="#F6E9C8"/>
<rect x="161" y="172" width="5" height="5" rx="0.8" fill="#F6E9C8"/>
<rect x="168" y="172" width="5" height="5" rx="0.8" fill="#F6E9C8"/>
<rect x="175" y="172" width="5" height="5" rx="0.8" fill="#F6E9C8"/>
<rect x="182" y="172" width="5" height="5" rx="0.8" fill="#F6E9C8"/>
<rect x="189" y="172" width="5" height="5" rx="0.8" fill="#F6E9C8"/>
<rect x="154" y="179" width="5" height="5" rx="0.8" fill="#F6E9C8"/>
<rect x="161" y="179" width="5" height="5" rx="0.8" fill="#F6E9C8"/>
<rect x="168" y="179" width="5" height="5" rx="0.8" fill="#F6E9C8"/>
<rect x="175" y="179" width="5" height="5" rx="0.8" fill="#F6E9C8"/>
<rect x="182" y="179" width="5" height="5" rx="0.8" fill="#F6E9C8"/>
<rect x="189" y="179" width="5" height="5" rx="0.8" fill="#F6E9C8"/>
<rect x="154" y="186" width="5" height="5" rx="0.8" fill="#F6E9C8"/>
<rect x="161" y="186" width="5" height="5" rx="0.8" fill="#F6E9C8"/>
<rect x="168" y="186" width="5" height="5" rx="0.8" fill="#F6E9C8"/>
<rect x="175" y="186" width="5" height="5" rx="0.8" fill="#F6E9C8"/>
<rect x="182" y="186" width="5" height="5" rx="0.8" fill="#F35843"/>
<rect x="189" y="186" width="5" height="5" rx="0.8" fill="#F6E9C8"/>
<rect x="154" y="193" width="5" height="5" rx="0.8" fill="#F6E9C8"/>
<rect x="161" y="193" width="5" height="5" rx="0.8" fill="#F6E9C8"/>
<rect x="168" y="193" width="5" height="5" rx="0.8" fill="#F6E9C8"/>
<rect x="175" y="193" width="5" height="5" rx="0.8" fill="#F6E9C8"/>
<rect x="182" y="193" width="5" height="5" rx="0.8" fill="#F6E9C8"/>
<rect x="189" y="193" width="5" height="5" rx="0.8" fill="#F35843"/>
</g>
<path d="M515 246C515 245.448 515.448 245 516 245H538C538.552 245 539 245.448 539 246V274C539 275.105 538.105 276 537 276H517C515.895 276 515 275.105 515 274V246Z" fill="#FDB850"/>
<path d="M538 268H544C545.105 268 546 267.105 546 266V258C546 256.895 545.105 256 544 256H538" stroke="#FDB850" stroke-width="4"/>
<path d="M523 258.333L519.32 261.137C519.168 261.252 519.184 261.486 519.349 261.58L523 263.666" stroke="#F6E9C8" stroke-width="2"/>
<path d="M531 263.667L534.68 260.863C534.832 260.748 534.816 260.514 534.651 260.42L531 258.334" stroke="#F6E9C8" stroke-width="2"/>
<path d="M528.333 257L525.667 265" stroke="#F6E9C8" stroke-width="2"/>
</svg>
